<?xml version="1.0" encoding="UTF-8" standalone="no"?>
<!-- Uploaded to: SVG Repo, www.svgrepo.com, Transformed by: SVG Repo Mixer Tools -->

<svg
   fill="#FFFFFF"
   height="800px"
   width="800px"
   version="1.1"
   id="Layer_1"
   viewBox="0 0 512 512"
   xml:space="preserve"
   stroke="#FFFFFF"
   sodipodi:docname="subtemplate-logo.svg"
   inkscape:version="1.4.2 (ebf0e940d0, 2025-05-08)"
   xmlns:inkscape="http://www.inkscape.org/namespaces/inkscape"
   xmlns:sodipodi="http://sodipodi.sourceforge.net/DTD/sodipodi-0.dtd"
   xmlns="http://www.w3.org/2000/svg"
   xmlns:svg="http://www.w3.org/2000/svg"><defs
   id="defs43" /><sodipodi:namedview
   id="namedview43"
   pagecolor="#ffffff"
   bordercolor="#000000"
   borderopacity="0.25"
   inkscape:showpageshadow="2"
   inkscape:pageopacity="0.0"
   inkscape:pagecheckerboard="0"
   inkscape:deskcolor="#d1d1d1"
   inkscape:zoom="1.005"
   inkscape:cx="270.14925"
   inkscape:cy="417.91045"
   inkscape:window-width="2804"
   inkscape:window-height="1388"
   inkscape:window-x="0"
   inkscape:window-y="0"
   inkscape:window-maximized="1"
   inkscape:current-layer="Layer_1" />

<g
   id="SVGRepo_bgCarrier"
   stroke-width="0" />

<g
   id="SVGRepo_tracerCarrier"
   stroke-linecap="round"
   stroke-linejoin="round" />

<g
   id="SVGRepo_iconCarrier"
   style="fill:#ffffff;fill-opacity:1"
   transform="matrix(0.86593323,0,0,0.86593323,34.321093,34.321026)"> <g
   id="g43"
   style="fill:#ffffff;fill-opacity:1"> <g
   id="g42"
   style="fill:#ffffff;fill-opacity:1"> <g
   id="g41"
   style="fill:#ffffff;fill-opacity:1"> <path
   d="m 119.467,102.4 c 4.719,0 8.533,-3.823 8.533,-8.533 V 51.2 h 8.533 c 4.719,0 8.533,-3.823 8.533,-8.533 0,-4.71 -3.814,-8.533 -8.533,-8.533 H 128 V 8.534 C 128,3.823 124.186,0 119.467,0 c -4.719,0 -8.533,3.823 -8.533,8.533 v 85.333 c -10e-4,4.711 3.814,8.534 8.533,8.534 z"
   id="path1"
   style="fill:#ffffff;fill-opacity:1" /> <path
   d="m 503.467,384 h -25.6 v -8.533 c 0,-4.71 -3.814,-8.533 -8.533,-8.533 -4.719,0 -8.533,3.823 -8.533,8.533 V 384 h -42.667 c -4.719,0 -8.533,3.823 -8.533,8.533 0,4.71 3.814,8.533 8.533,8.533 h 85.333 c 4.719,0 8.533,-3.823 8.533,-8.533 0,-4.71 -3.814,-8.533 -8.533,-8.533 z"
   id="path2"
   style="fill:#ffffff;fill-opacity:1" /> <path
   d="m 93.867,460.8 h -8.533 c -4.719,0 -8.533,3.823 -8.533,8.533 0,4.71 3.814,8.533 8.533,8.533 h 8.533 c 4.719,0 8.533,-3.823 8.533,-8.533 0,-4.71 -3.814,-8.533 -8.533,-8.533 z"
   id="path3"
   style="fill:#ffffff;fill-opacity:1" /> <path
   d="M 136.533,460.8 H 128 c -4.719,0 -8.533,3.823 -8.533,8.533 0,4.71 3.814,8.533 8.533,8.533 h 8.533 c 4.719,0 8.533,-3.823 8.533,-8.533 0,-4.71 -3.814,-8.533 -8.533,-8.533 z"
   id="path4"
   style="fill:#ffffff;fill-opacity:1" /> <path
   d="m 179.2,460.8 h -8.533 c -4.719,0 -8.533,3.823 -8.533,8.533 0,4.71 3.814,8.533 8.533,8.533 h 8.533 c 4.719,0 8.533,-3.823 8.533,-8.533 0,-4.71 -3.814,-8.533 -8.533,-8.533 z"
   id="path5"
   style="fill:#ffffff;fill-opacity:1" /> <path
   d="m 221.867,460.8 h -8.533 c -4.719,0 -8.533,3.823 -8.533,8.533 0,4.71 3.814,8.533 8.533,8.533 h 8.533 c 4.719,0 8.533,-3.823 8.533,-8.533 0,-4.71 -3.814,-8.533 -8.533,-8.533 z"
   id="path6"
   style="fill:#ffffff;fill-opacity:1" /> <path
   d="M 264.533,460.8 H 256 c -4.719,0 -8.533,3.823 -8.533,8.533 0,4.71 3.814,8.533 8.533,8.533 h 8.533 c 4.719,0 8.533,-3.823 8.533,-8.533 0,-4.71 -3.814,-8.533 -8.533,-8.533 z"
   id="path7"
   style="fill:#ffffff;fill-opacity:1" /> <path
   d="m 307.2,460.8 h -8.533 c -4.719,0 -8.533,3.823 -8.533,8.533 0,4.71 3.814,8.533 8.533,8.533 h 8.533 c 4.719,0 8.533,-3.823 8.533,-8.533 0,-4.71 -3.814,-8.533 -8.533,-8.533 z"
   id="path8"
   style="fill:#ffffff;fill-opacity:1" /> <path
   d="m 349.867,460.8 h -8.533 c -4.719,0 -8.533,3.823 -8.533,8.533 0,4.71 3.814,8.533 8.533,8.533 h 8.533 c 4.719,0 8.533,-3.823 8.533,-8.533 0,-4.71 -3.814,-8.533 -8.533,-8.533 z"
   id="path9"
   style="fill:#ffffff;fill-opacity:1" /> <path
   d="M 392.533,460.8 H 384 c -4.719,0 -8.533,3.823 -8.533,8.533 0,4.71 3.814,8.533 8.533,8.533 h 8.533 c 4.719,0 8.533,-3.823 8.533,-8.533 0,-4.71 -3.814,-8.533 -8.533,-8.533 z"
   id="path10"
   style="fill:#ffffff;fill-opacity:1" /> <path
   d="m 435.2,460.8 h -8.533 c -4.719,0 -8.533,3.823 -8.533,8.533 0,4.71 3.814,8.533 8.533,8.533 h 8.533 c 4.719,0 8.533,-3.823 8.533,-8.533 0,-4.71 -3.814,-8.533 -8.533,-8.533 z"
   id="path11"
   style="fill:#ffffff;fill-opacity:1" /> <path
   d="m 503.467,460.8 h -34.133 c -4.719,0 -8.533,3.823 -8.533,8.533 v 34.133 c 0,4.71 3.814,8.533 8.533,8.533 4.719,0 8.533,-3.823 8.533,-8.533 v -25.6 h 25.6 c 4.719,0 8.533,-3.823 8.533,-8.533 0,-4.71 -3.814,-8.533 -8.533,-8.533 z"
   id="path12"
   style="fill:#ffffff;fill-opacity:1" /> <path
   d="m 426.667,51.2 h 8.533 c 4.719,0 8.533,-3.823 8.533,-8.533 0,-4.71 -3.814,-8.533 -8.533,-8.533 h -8.533 c -4.719,0 -8.533,3.823 -8.533,8.533 -0.001,4.71 3.814,8.533 8.533,8.533 z"
   id="path13"
   style="fill:#ffffff;fill-opacity:1" /> <path
   d="M 392.533,34.133 H 384 c -4.719,0 -8.533,3.823 -8.533,8.533 0,4.71 3.814,8.533 8.533,8.533 h 8.533 c 4.719,0 8.533,-3.823 8.533,-8.533 0.001,-4.71 -3.814,-8.533 -8.533,-8.533 z"
   id="path14"
   style="fill:#ffffff;fill-opacity:1" /> <path
   d="m 341.333,51.2 h 8.533 c 4.719,0 8.533,-3.823 8.533,-8.533 0,-4.71 -3.814,-8.533 -8.533,-8.533 h -8.533 c -4.719,0 -8.533,3.823 -8.533,8.533 0,4.71 3.814,8.533 8.533,8.533 z"
   id="path15"
   style="fill:#ffffff;fill-opacity:1" /> <path
   d="m 298.667,51.2 h 8.533 c 4.719,0 8.533,-3.823 8.533,-8.533 0,-4.71 -3.814,-8.533 -8.533,-8.533 h -8.533 c -4.719,0 -8.533,3.823 -8.533,8.533 -0.001,4.71 3.814,8.533 8.533,8.533 z"
   id="path16"
   style="fill:#ffffff;fill-opacity:1" /> <path
   d="m 256,51.2 h 8.533 c 4.719,0 8.533,-3.823 8.533,-8.533 0,-4.71 -3.814,-8.533 -8.533,-8.533 H 256 c -4.719,0 -8.533,3.823 -8.533,8.533 0,4.71 3.814,8.533 8.533,8.533 z"
   id="path17"
   style="fill:#ffffff;fill-opacity:1" /> <path
   d="m 213.333,51.2 h 8.533 c 4.719,0 8.533,-3.823 8.533,-8.533 0,-4.71 -3.814,-8.533 -8.533,-8.533 h -8.533 c -4.719,0 -8.533,3.823 -8.533,8.533 0,4.71 3.814,8.533 8.533,8.533 z"
   id="path18"
   style="fill:#ffffff;fill-opacity:1" /> <path
   d="m 170.667,51.2 h 8.533 c 4.719,0 8.533,-3.823 8.533,-8.533 0,-4.71 -3.814,-8.533 -8.533,-8.533 h -8.533 c -4.719,0 -8.533,3.823 -8.533,8.533 -10e-4,4.71 3.814,8.533 8.533,8.533 z"
   id="path19"
   style="fill:#ffffff;fill-opacity:1" /> <path
   d="m 85.333,51.2 c 4.719,0 8.533,-3.823 8.533,-8.533 0,-4.71 -3.814,-8.533 -8.533,-8.533 H 76.8 c -4.719,0 -8.533,3.823 -8.533,8.533 0,4.71 3.814,8.533 8.533,8.533 z"
   id="path20"
   style="fill:#ffffff;fill-opacity:1" /> <path
   d="m 469.333,51.2 h 34.133 c 4.719,0 8.533,-3.823 8.533,-8.533 0,-4.71 -3.814,-8.533 -8.533,-8.533 h -25.6 v -25.6 c 0,-4.71 -3.814,-8.533 -8.533,-8.533 -4.719,0 -8.533,3.822 -8.533,8.532 v 34.133 c 0,4.711 3.814,8.534 8.533,8.534 z"
   id="path21"
   style="fill:#ffffff;fill-opacity:1" /> <path
   d="m 42.667,0 c -4.719,0 -8.533,3.823 -8.533,8.533 v 25.6 H 8.534 C 3.814,34.133 0,37.956 0,42.667 0,47.377 3.814,51.2 8.533,51.2 h 34.133 c 4.719,0 8.533,-3.823 8.533,-8.533 V 8.533 C 51.2,3.823 47.386,0 42.667,0 Z"
   id="path22"
   style="fill:#ffffff;fill-opacity:1" /> <path
   d="m 42.667,76.8 c -4.719,0 -8.533,3.823 -8.533,8.533 v 8.533 c 0,4.71 3.814,8.533 8.533,8.533 4.719,0 8.533,-3.823 8.533,-8.533 v -8.533 c 0,-4.71 -3.814,-8.533 -8.533,-8.533 z"
   id="path23"
   style="fill:#ffffff;fill-opacity:1" /> <path
   d="m 42.667,119.467 c -4.719,0 -8.533,3.823 -8.533,8.533 v 8.533 c 0,4.71 3.814,8.533 8.533,8.533 4.719,0 8.533,-3.823 8.533,-8.533 V 128 c 0,-4.71 -3.814,-8.533 -8.533,-8.533 z"
   id="path24"
   style="fill:#ffffff;fill-opacity:1" /> <path
   d="m 42.667,162.133 c -4.719,0 -8.533,3.823 -8.533,8.533 v 8.533 c 0,4.71 3.814,8.533 8.533,8.533 4.719,0 8.533,-3.822 8.533,-8.532 v -8.533 c 0,-4.711 -3.814,-8.534 -8.533,-8.534 z"
   id="path25"
   style="fill:#ffffff;fill-opacity:1" /> <path
   d="m 42.667,204.8 c -4.719,0 -8.533,3.823 -8.533,8.533 v 8.533 c 0,4.71 3.814,8.533 8.533,8.533 4.719,0 8.533,-3.823 8.533,-8.533 v -8.533 c 0,-4.71 -3.814,-8.533 -8.533,-8.533 z"
   id="path26"
   style="fill:#ffffff;fill-opacity:1" /> <path
   d="m 42.667,247.467 c -4.719,0 -8.533,3.823 -8.533,8.533 v 8.533 c 0,4.71 3.814,8.533 8.533,8.533 4.719,0 8.533,-3.823 8.533,-8.533 V 256 c 0,-4.71 -3.814,-8.533 -8.533,-8.533 z"
   id="path27"
   style="fill:#ffffff;fill-opacity:1" /> <path
   d="m 42.667,290.133 c -4.719,0 -8.533,3.823 -8.533,8.533 v 8.533 c 0,4.71 3.814,8.533 8.533,8.533 4.719,0 8.533,-3.822 8.533,-8.532 v -8.533 c 0,-4.711 -3.814,-8.534 -8.533,-8.534 z"
   id="path28"
   style="fill:#ffffff;fill-opacity:1" /> <path
   d="m 42.667,332.8 c -4.719,0 -8.533,3.823 -8.533,8.533 v 8.533 c 0,4.71 3.814,8.533 8.533,8.533 4.719,0 8.533,-3.823 8.533,-8.533 v -8.533 c 0,-4.71 -3.814,-8.533 -8.533,-8.533 z"
   id="path29"
   style="fill:#ffffff;fill-opacity:1" /> <path
   d="m 42.667,375.467 c -4.719,0 -8.533,3.823 -8.533,8.533 v 8.533 c 0,4.71 3.814,8.533 8.533,8.533 4.719,0 8.533,-3.823 8.533,-8.533 V 384 c 0,-4.71 -3.814,-8.533 -8.533,-8.533 z"
   id="path30"
   style="fill:#ffffff;fill-opacity:1" /> <path
   d="m 42.667,418.133 c -4.719,0 -8.533,3.823 -8.533,8.533 v 8.533 c 0,4.71 3.814,8.533 8.533,8.533 4.719,0 8.533,-3.822 8.533,-8.532 v -8.533 c 0,-4.711 -3.814,-8.534 -8.533,-8.534 z"
   id="path31"
   style="fill:#ffffff;fill-opacity:1" /> <path
   d="m 469.333,93.867 c 4.719,0 8.533,-3.823 8.533,-8.533 V 76.8 c 0,-4.71 -3.814,-8.533 -8.533,-8.533 -4.719,0 -8.533,3.823 -8.533,8.533 v 8.533 c 0,4.711 3.814,8.534 8.533,8.534 z"
   id="path32"
   style="fill:#ffffff;fill-opacity:1" /> <path
   d="m 469.333,136.533 c 4.719,0 8.533,-3.823 8.533,-8.533 v -8.533 c 0,-4.71 -3.814,-8.533 -8.533,-8.533 -4.719,0 -8.533,3.823 -8.533,8.533 V 128 c 0,4.71 3.814,8.533 8.533,8.533 z"
   id="path33"
   style="fill:#ffffff;fill-opacity:1" /> <path
   d="m 469.333,179.2 c 4.719,0 8.533,-3.823 8.533,-8.533 v -8.533 c 0,-4.71 -3.814,-8.533 -8.533,-8.533 -4.719,0 -8.533,3.823 -8.533,8.533 v 8.533 c 0,4.71 3.814,8.533 8.533,8.533 z"
   id="path34"
   style="fill:#ffffff;fill-opacity:1" /> <path
   d="m 469.333,221.867 c 4.719,0 8.533,-3.823 8.533,-8.533 V 204.8 c 0,-4.71 -3.814,-8.533 -8.533,-8.533 -4.719,0 -8.533,3.823 -8.533,8.533 v 8.533 c 0,4.711 3.814,8.534 8.533,8.534 z"
   id="path35"
   style="fill:#ffffff;fill-opacity:1" /> <path
   d="m 469.333,264.533 c 4.719,0 8.533,-3.823 8.533,-8.533 v -8.533 c 0,-4.71 -3.814,-8.533 -8.533,-8.533 -4.719,0 -8.533,3.823 -8.533,8.533 V 256 c 0,4.71 3.814,8.533 8.533,8.533 z"
   id="path36"
   style="fill:#ffffff;fill-opacity:1" /> <path
   d="m 469.333,307.2 c 4.719,0 8.533,-3.823 8.533,-8.533 v -8.533 c 0,-4.71 -3.814,-8.533 -8.533,-8.533 -4.719,0 -8.533,3.823 -8.533,8.533 v 8.533 c 0,4.71 3.814,8.533 8.533,8.533 z"
   id="path37"
   style="fill:#ffffff;fill-opacity:1" /> <path
   d="m 469.333,349.867 c 4.719,0 8.533,-3.823 8.533,-8.533 V 332.8 c 0,-4.71 -3.814,-8.533 -8.533,-8.533 -4.719,0 -8.533,3.823 -8.533,8.533 v 8.533 c 0,4.711 3.814,8.534 8.533,8.534 z"
   id="path38"
   style="fill:#ffffff;fill-opacity:1" /> <path
   d="m 469.333,443.733 c 4.719,0 8.533,-3.823 8.533,-8.533 v -8.533 c 0,-4.71 -3.814,-8.533 -8.533,-8.533 -4.719,0 -8.533,3.823 -8.533,8.533 v 8.533 c 0,4.71 3.814,8.533 8.533,8.533 z"
   id="path39"
   style="fill:#ffffff;fill-opacity:1" /> <path
   d="M 42.667,460.8 H 8.533 C 3.814,460.8 0,464.623 0,469.333 c 0,4.71 3.814,8.533 8.533,8.533 h 25.6 v 25.6 c 0,4.71 3.814,8.533 8.533,8.533 4.719,0 8.533,-3.823 8.533,-8.533 V 469.333 C 51.2,464.623 47.386,460.8 42.667,460.8 Z"
   id="path40"
   style="fill:#ffffff;fill-opacity:1" /> <path
   d="M 384,418.133 V 127.999 c 0,-4.71 -3.814,-8.533 -8.533,-8.533 H 102.4 c -4.719,0 -8.533,3.823 -8.533,8.533 v 290.133 c 0,4.71 3.814,8.533 8.533,8.533 h 273.067 c 4.719,10e-4 8.533,-3.822 8.533,-8.532 z M 349.21,310.459 c -0.435,1.05 -1.058,1.988 -1.852,2.782 l -25.591,25.591 c -1.664,1.664 -3.849,2.5 -6.033,2.5 -2.185,0 -4.369,-0.836 -6.033,-2.5 -3.336,-3.328 -3.336,-8.73 0,-12.066 l 11.034,-11.034 H 281.6 V 363.4 l 11.034,-11.034 c 3.337,-3.337 8.73,-3.337 12.066,0 3.336,3.337 3.336,8.738 0,12.066 l -25.591,25.591 c -0.785,0.794 -1.732,1.417 -2.782,1.852 -1.041,0.435 -2.15,0.657 -3.26,0.657 -1.109,0 -2.219,-0.23 -3.26,-0.657 -1.05,-0.435 -1.997,-1.058 -2.782,-1.852 l -25.591,-25.591 c -3.336,-3.328 -3.336,-8.73 0,-12.066 3.337,-3.337 8.73,-3.337 12.066,0 L 264.534,363.4 V 315.733 H 148.599 l 11.034,11.034 c 3.337,3.336 3.337,8.738 0,12.066 -1.664,1.664 -3.849,2.5 -6.033,2.5 -2.185,0 -4.369,-0.836 -6.033,-2.5 l -25.591,-25.591 c -0.794,-0.794 -1.417,-1.732 -1.852,-2.782 -0.862,-2.082 -0.862,-4.437 0,-6.519 0.435,-1.05 1.058,-1.988 1.852,-2.782 l 25.591,-25.591 c 3.337,-3.337 8.73,-3.337 12.066,0 3.337,3.336 3.337,8.738 0,12.066 l -11.034,11.034 H 264.533 V 174.199 L 253.5,185.232 c -3.337,3.336 -8.73,3.336 -12.066,0 -3.336,-3.328 -3.336,-8.73 0,-12.066 l 25.591,-25.591 c 0.785,-0.794 1.732,-1.417 2.782,-1.852 2.082,-0.862 4.437,-0.862 6.519,0 1.05,0.435 1.997,1.058 2.782,1.852 l 25.591,25.591 c 3.336,3.337 3.336,8.738 0,12.066 -1.664,1.664 -3.849,2.5 -6.033,2.5 -2.185,0 -4.369,-0.836 -6.033,-2.5 L 281.6,174.199 v 124.467 h 39.134 L 309.7,287.632 c -3.336,-3.328 -3.336,-8.73 0,-12.066 3.337,-3.337 8.73,-3.337 12.066,0 l 25.591,25.591 c 0.794,0.794 1.417,1.732 1.852,2.782 0.862,2.083 0.862,4.438 10e-4,6.52 z"
   id="path41"
   style="fill:#ffffff;fill-opacity:1" /> </g> </g> </g> </g>

</svg>
